<svg xmlns="http://www.w3.org/2000/svg" viewBox="0 0 512 512">
  <defs/>
  <circle cx="256" cy="256" r="240" fill="#90caf9"/>
  <path fill="#eceff1" d="M364 148L241 271l-89-35c-5-3-8-8-8-13 0-6 4-11 9-13l197-65c5-2 11-1 14 3z"/>
  <path fill="#fafafa" d="M367 162l-66 197c-1 5-6 9-12 9-5 0-10-3-13-8l-35-89 123-123c4 3 5 9 3 14z"/>
  <path d="M256 512a256 256 0 110-512 256 256 0 010 512zm0-480a224 224 0 100 448 224 224 0 000-448z"/>
  <path d="M496 272h-64a16 16 0 110-32h64a16 16 0 110 32zM80 272H16a16 16 0 110-32h64a16 16 0 110 32zM256 96c-9 0-16-7-16-16V16a16 16 0 1132 0v64c0 9-7 16-16 16zM256 512c-9 0-16-7-16-16v-64a16 16 0 1132 0v64c0 9-7 16-16 16zM280 407c-7 0-13-4-15-10l-43-107-107-43a16 16 0 011-30l238-79a16 16 0 0120 20l-79 238c-2 6-8 11-15 11zM168 234l72 29c4 1 7 5 9 9l29 72 55-166-165 56z"/>
</svg>