<svg xmlns="http://www.w3.org/2000/svg" xmlns:xlink="http://www.w3.org/1999/xlink" width="1144" height="742.9" data-name="Layer 1" viewBox="0 0 1144 743">
  <defs/>
  <defs>
    <linearGradient id="a" x1="495.9" x2="495.9" y1="801.4" y2="420.4" gradientUnits="userSpaceOnUse">
      <stop offset="0" stop-color="gray" stop-opacity=".3"/>
      <stop offset=".5" stop-color="gray" stop-opacity=".1"/>
      <stop offset="1" stop-color="gray" stop-opacity=".1"/>
    </linearGradient>
    <linearGradient id="b" x1="591.5" x2="744.5" y1="620.3" y2="620.3" xlink:href="#a"/>
  </defs>
  <path fill="#6c63ff" d="M1143 516a244 244 0 01-9 40 229 229 0 01-15 37c0 83-66 150-148 150H218a186 186 0 01-130-53h1c69-19 143-25 203-69q-123-20-245-51l-16-5-1-12-1-2-4-9a243 243 0 0131-259c229 19 459 11 689 3l-201-40-329-66C285 82 408 16 549 16c99 0 189 33 258 86 26-17 55-26 86-26 65 0 122 41 153 104a242 242 0 0123 128v1a203 203 0 0153 69l6 15-25 6q-135 31-268 76-39 12-76 26c-22 8-49 26-71 27 151-10 303 5 453-12z" opacity=".1"/>
  <path fill="#6c63ff" d="M1144 481c0-72-30-136-76-174l1-22c0-117-79-212-177-212-31 0-60 10-86 27-69-54-159-86-258-86-161 0-299 86-361 209h-10C79 223 0 317 0 434c0 43 11 83 29 116 0 105 84 191 188 191h753c82 0 148-67 148-150 16-32 26-70 26-110z" opacity=".1"/>
  <path fill="#6c63ff" d="M821 726c0 5-5 10-14 14l-6 3H301l-5-3c-10-4-15-9-15-14 0-25 121-46 270-46s270 21 270 46z" opacity=".1"/>
  <ellipse cx="361.8" cy="717.7" fill="#6c63ff" rx="29.2" ry="5.6"/>
  <ellipse cx="361.3" cy="715.3" fill="#3f3d56" rx="3.4" ry="4.5"/>
  <ellipse cx="361.3" cy="709.8" fill="#3f3d56" rx="3.4" ry="4.5"/>
  <ellipse cx="361.3" cy="704.4" fill="#3f3d56" rx="3.4" ry="4.5"/>
  <ellipse cx="361.3" cy="699" fill="#3f3d56" rx="3.4" ry="4.5"/>
  <ellipse cx="361.3" cy="693.5" fill="#3f3d56" rx="3.4" ry="4.5"/>
  <ellipse cx="361.3" cy="688" fill="#3f3d56" rx="3.4" ry="4.5"/>
  <ellipse cx="361.3" cy="682.6" fill="#3f3d56" rx="3.4" ry="4.5"/>
  <path fill="#6c63ff" d="M374 645a16 16 0 001-2l-9-1h10a16 16 0 000-13l-13 7 12-9a16 16 0 10-27 18 16 16 0 00-1 3l11 6-12-4a16 16 0 002 15 16 16 0 1026 0 16 16 0 000-20z"/>
  <path d="M345 655a16 16 0 003 11 16 16 0 1026 0c2-3-29-12-29-11z" opacity=".1"/>
  <g fill="#6c63ff" opacity=".8">
    <path d="M681 175c-3-4-8 0-6 3l2 3c8 10 12 22 15 34 1 3 2 6 1 9 1-7 0-16-2-23l-8-23a20 20 0 00-2-3z" opacity=".5"/>
    <path d="M632 196c-5 0-6 7-1 8h4c16 0 30 6 44 12 4 1 7 3 10 6-7-7-15-13-24-16l-28-9a24 24 0 00-5-1z"/>
    <path d="M634 215c-4 0-3 4 0 4h3c9 0 19 3 29 5l7 4a53 53 0 00-17-9 132 132 0 00-19-4 17 17 0 00-3 0z" opacity=".2"/>
    <path d="M699 299c1 3 5 1 4-2l-1-3c-2-9-2-19-2-29 0-3 0-5 2-8a53 53 0 00-5 19 131 131 0 001 19 17 17 0 001 4z" opacity=".5"/>
    <path d="M639 170c-2 0-2 3 0 3l2 1c6 1 11 3 17 6a9 9 0 013 3 32 32 0 00-9-7 79 79 0 00-11-5 10 10 0 00-2-1z" opacity=".2"/>
    <path d="M610 244c-5 3-1 10 4 7l4-1c15-8 32-11 49-13h12c-10-3-21-3-32-2s-21 4-32 7a28 28 0 00-5 2z"/>
    <path d="M624 271c-4 3 2 7 5 4l3-2c11-10 25-18 39-24a165 165 0 00-18 5 216 216 0 00-25 14 27 27 0 00-4 3z" opacity=".5"/>
    <path d="M649 314c-1 4 5 4 6 0l1-4c3-14 11-28 19-41a161 161 0 00-12 14 216 216 0 00-13 26 27 27 0 00-1 5zM699 150c-3-5-9-1-7 4l2 4c7 15 9 32 11 49 1 4 1 8-1 12 3-10 4-21 3-32s-4-21-6-32a28 28 0 00-2-5zM661 158h1l1-4a14 14 0 012 3l4-1a5 5 0 01-1 4 5 5 0 012 1 2 2 0 010 2 9 9 0 01-2 1 16 16 0 01-1 4 1 1 0 010 1h-1a8 8 0 01-3-3l-1 3a1 1 0 01-1 0 1 1 0 01-1 0 3 3 0 010-1l-1-3a1 1 0 000-1h-4l1-1 2-1v-4c0-2 2 0 3 0z"/>
    <path d="M728 175c3-4 8 0 5 3l-1 3c-8 10-12 22-15 34-1 3-2 6-1 9-1-7 0-16 2-23a146 146 0 018-23 21 21 0 012-3z" opacity=".5"/>
    <path d="M777 196c5 0 5 7 0 8h-4c-15 0-30 6-44 12-3 1-7 3-9 6 7-7 15-13 24-16l28-9a24 24 0 015-1z"/>
    <path d="M775 215c3 0 3 4 0 4h-3c-10 0-20 3-29 5l-7 4a53 53 0 0117-9 132 132 0 0119-4 17 17 0 013 0z" opacity=".5"/>
    <path d="M770 170c1 0 2 3 0 3l-2 1c-6 1-11 3-17 6a9 9 0 00-3 3 32 32 0 019-7 80 80 0 0111-5 10 10 0 012-1zM720 305c-1 1-3 0-3-1v-2c2-6 1-12 0-18a9 9 0 00-1-5 32 32 0 013 12 80 80 0 011 11 10 10 0 010 2z" opacity=".2"/>
    <path d="M768 292c2 2-2 2-4 0l-1-2c-4-8-11-16-18-23a25 25 0 00-6-5 91 91 0 0115 13c5 4 9 9 12 14a24 24 0 012 3z" opacity=".5"/>
    <path d="M635 292c-1 2 2 2 4 0l1-2c5-8 12-16 19-23a25 25 0 015-5 90 90 0 00-15 13l-12 14a24 24 0 00-2 3zM684 305l3-1-1-2v-18a9 9 0 011-5 32 32 0 00-3 12 80 80 0 000 11 10 10 0 000 2zM754 189c2 0 2 3 0 3l-1 1c-6 1-12 3-17 6a9 9 0 00-4 3 32 32 0 0110-7 81 81 0 0110-5 10 10 0 012-1zM736 152c2-1 3 2 1 3h-1l-13 13a9 9 0 00-2 4 32 32 0 016-10 80 80 0 018-9 10 10 0 011-1z" opacity=".2"/>
    <path d="M799 244c5 3 1 10-4 7l-4-1c-15-8-32-11-49-13h-13c11-3 22-3 33-2s21 4 32 7a28 28 0 015 2z"/>
    <path d="M785 271c4 3-2 7-5 4l-3-2c-11-10-25-18-39-24a165 165 0 0118 5 216 216 0 0125 14 27 27 0 014 3z" opacity=".5"/>
    <path d="M744 319c0 5-6 4-7-1v-3c-1-15-7-30-13-44l-14-16c7 7 20 23 24 32a216 216 0 019 27 28 28 0 011 5zM748 158h-1l-1-4a14 14 0 00-2 3l-4-1a5 5 0 001 4 5 5 0 00-2 1 2 2 0 000 2 9 9 0 002 1 16 16 0 000 4 1 1 0 001 1 1 1 0 001 0 8 8 0 002-3l2 3a1 1 0 001 0 3 3 0 001-1v-3a1 1 0 010-1 1 1 0 011 0h4l-1-1-2-1v-4c-1-2-2 0-3 0z"/>
    <path d="M759 302a1 1 0 01-1 0l-2-4a14 14 0 00-2 3l-3-1a5 5 0 000 4 5 5 0 00-1 1 2 2 0 00-1 2 9 9 0 003 0 16 16 0 000 5 1 1 0 000 1l1-1a8 8 0 003-3l1 4a1 1 0 001 0 1 1 0 001 0 3 3 0 000-1l1-3a1 1 0 010-1 1 1 0 011 0h3l-1-1-2-1 1-5c-1-1-2 0-3 1z" opacity=".2"/>
    <path d="M788 206l-1-1-1-4a14 14 0 00-2 4l-4-1a5 5 0 001 4 5 5 0 00-2 1 2 2 0 000 2 9 9 0 002 0 16 16 0 001 5 1 1 0 001 0 8 8 0 003-3l1 3a1 1 0 000 1 1 1 0 002-1 3 3 0 000-1v-3a1 1 0 011 0h4l-1-2-2-1v-4l-3 1zM670 316a1 1 0 01-1 1l-1-1-1-6a19 19 0 00-3 5l-5-1a7 7 0 001 5 8 8 0 00-2 2 3 3 0 00-1 3 12 12 0 003 0 22 22 0 001 6 1 1 0 001 1 11 11 0 004-4l2 4a2 2 0 001 1 1 1 0 001 0 4 4 0 001-2l1-4a1 1 0 010-1 1 1 0 011 0h5l-2-2-2-2v-5c-1-2-3 0-4 0zM621 208a1 1 0 01-1 1l-1-1-1-6a19 19 0 00-3 5l-5-1a7 7 0 001 6 7 7 0 00-3 1 3 3 0 000 3 12 12 0 003 0 23 23 0 001 6 1 1 0 000 1h1a11 11 0 004-4l2 4a2 2 0 001 1 1 1 0 001 0 4 4 0 001-2v-4a1 1 0 011-1h6l-2-2-2-2v-5c-1-2-3 0-4 0z"/>
    <path d="M770 275a1 1 0 01-1 0l-1-3a10 10 0 00-1 3l-3-1a4 4 0 001 3 4 4 0 00-2 1 1 1 0 000 1 6 6 0 002 0 12 12 0 000 4h1a6 6 0 002-2l1 2a1 1 0 001 1 1 1 0 000-1 2 2 0 001 0v-3a1 1 0 011 0h2l-1-1-1-1v-3h-2zM703 314h-1v-3a10 10 0 00-2 2h-3a4 4 0 001 3 4 4 0 00-1 0 1 1 0 00-1 2 7 7 0 002 0 12 12 0 000 3 1 1 0 000 1h1a6 6 0 002-3l1 3a1 1 0 001 0 2 2 0 001-1v-2a1 1 0 011 0h2v-2h-2l1-3h-3z" opacity=".2"/>
    <path d="M638 179l-1-3a10 10 0 00-2 2l-2-1a4 4 0 000 3 4 4 0 00-1 1 1 1 0 000 2 7 7 0 001 0 12 12 0 001 3 1 1 0 000 1 6 6 0 003-3l1 3a1 1 0 001 0 2 2 0 000-1v-2a1 1 0 011 0 1 1 0 010-1h3l-1-1-1-1v-3l-3 1zM673 255h-1l-1-3a11 11 0 00-1 2h-3a4 4 0 001 3 4 4 0 00-2 0 1 1 0 000 2 7 7 0 002 0 12 12 0 000 3 1 1 0 000 1 1 1 0 001 0 6 6 0 002-3l1 3a1 1 0 001 0 2 2 0 001-1v-2h3l-1-2h-1v-3h-2zM648 225h-1l-1-3a10 10 0 00-1 3l-3-1a4 4 0 001 3 4 4 0 00-2 1 1 1 0 000 1 7 7 0 002 0 12 12 0 000 4 1 1 0 001 0 6 6 0 002-2l1 2a1 1 0 000 1 1 1 0 001-1 2 2 0 001-1v-2h3l-1-1-1-1v-3h-2zM755 232h-1v-3a10 10 0 00-2 3l-3-1a4 4 0 001 3 4 4 0 00-1 1 1 1 0 00-1 1 7 7 0 002 0 12 12 0 000 4 1 1 0 001 0 6 6 0 002-2l1 2a1 1 0 001 1 1 1 0 001-1 2 2 0 000-1v-2a1 1 0 011 0h2v-1l-2-1 1-3h-3z" opacity=".5"/>
    <path d="M703 226a1 1 0 010 1l-1-1v-3a10 10 0 00-2 3l-3-1a4 4 0 001 3 4 4 0 00-1 1 1 1 0 00-1 1 7 7 0 002 0 12 12 0 000 4 1 1 0 001 0 6 6 0 002-2l1 2a1 1 0 001 1 2 2 0 001-1v-3a1 1 0 011 0h2v-1l-2-1 1-3h-3z" opacity=".2"/>
    <path d="M687 234a1 1 0 01-1 0v-1l-1-3a10 10 0 00-1 3l-3-1a4 4 0 000 3 4 4 0 00-1 1 1 1 0 000 1 7 7 0 002 1 12 12 0 000 3 1 1 0 001 0 6 6 0 002-2l1 2a1 1 0 000 1 1 1 0 001 0 2 2 0 000-1l1-2a1 1 0 010-1h3l-1-1-1-1v-3c-1-1-1 0-2 1z" opacity=".3"/>
    <path d="M672 190a1 1 0 01-1 1v-1l-1-3a10 10 0 00-2 3l-2-1a4 4 0 000 3 4 4 0 00-1 1 1 1 0 000 1 6 6 0 001 0 12 12 0 001 4 1 1 0 001 0 6 6 0 002-2l1 2a1 1 0 000 1 1 1 0 001 0 2 2 0 000-1l1-3h3l-1-1-1-1v-3h-2z" opacity=".2"/>
    <path d="M702 247a1 1 0 01-1 0v-1l-1-3a10 10 0 00-2 3l-2-1a4 4 0 000 3 4 4 0 00-1 1 1 1 0 000 1 7 7 0 002 1 12 12 0 000 3h1a6 6 0 002-2l1 2a1 1 0 000 1 1 1 0 001 0 2 2 0 000-1l1-2a1 1 0 010-1h3l-1-1-1-1v-3c-1-1-2 0-2 1z" opacity=".3"/>
  </g>
  <g fill="#6c63ff" opacity=".6">
    <path d="M644 17a2 2 0 00-3 2l1 2c5 6 7 14 10 21v6a36 36 0 00-1-15 92 92 0 00-5-14 12 12 0 00-2-2z" opacity=".5"/>
    <path d="M614 30c-3 0-4 5 0 5h2c10 1 19 4 28 8l5 4a42 42 0 00-14-11 108 108 0 00-18-5 14 14 0 00-3-1z"/>
    <path d="M615 42c-2 0-2 3 0 3h2l18 3a10 10 0 015 2 34 34 0 00-11-5 84 84 0 00-12-3 11 11 0 00-2 0z" opacity=".2"/>
    <path d="M656 95c0 2 3 1 3-1l-1-2c-2-6-2-12-1-19a9 9 0 011-4 33 33 0 00-3 12 83 83 0 000 12 11 11 0 001 2z" opacity=".5"/>
    <path d="M619 14c-2 0-2 2-1 2h1l11 5a6 6 0 012 1 20 20 0 00-6-4 49 49 0 00-6-3 6 6 0 00-1-1z" opacity=".2"/>
    <path d="M600 61c-3 1-1 6 3 4l2-1c9-5 20-7 31-8h8a53 53 0 00-21-1 133 133 0 00-20 4 17 17 0 00-3 2z"/>
    <path d="M609 78c-3 2 1 4 3 2l2-2c7-6 15-10 24-14l14-2c-7 0-19 2-25 5a136 136 0 00-16 9 17 17 0 00-2 2z" opacity=".5"/>
    <path d="M624 104c0 3 4 3 5 0v-2c2-9 7-18 12-26l10-9c-5 4-14 12-18 18a135 135 0 00-8 16 18 18 0 00-1 3zM656 1c-2-3-6 0-5 3l2 2c4 10 6 20 7 31l-1 8a53 53 0 002-20 134 134 0 00-4-20 18 18 0 00-1-4zM632 7l1-1V4a9 9 0 012 2l2-1a3 3 0 010 3 3 3 0 011 1 1 1 0 010 1 6 6 0 01-2 0 10 10 0 010 3 1 1 0 01-1 0 5 5 0 01-1-2l-1 2a1 1 0 01-1 1 1 1 0 010-1l-1-2h-3l1-1 1-1V6l2 1z"/>
    <path d="M674 17a2 2 0 014 2l-2 2c-4 6-7 14-9 21v6a36 36 0 011-15 91 91 0 015-14 12 12 0 011-2z" opacity=".5"/>
    <path d="M705 30c3 0 3 5 0 5h-2c-10 1-19 4-28 8l-6 4a42 42 0 0115-11 108 108 0 0118-5 15 15 0 013-1z"/>
    <path d="M704 42c2 0 2 3 0 3h-2l-18 3a10 10 0 00-5 2 33 33 0 0111-5 84 84 0 0112-3 11 11 0 012 0z" opacity=".5"/>
    <path d="M700 14c2 0 2 2 0 2h-1l-10 5a6 6 0 00-2 1 20 20 0 015-4 50 50 0 017-3 6 6 0 011-1zM669 99l-2-1v-1l1-11a6 6 0 00-1-3 20 20 0 012 7 51 51 0 010 7 6 6 0 010 1z" opacity=".2"/>
    <path d="M700 91c0 1-2 1-3-1l-1-1c-2-5-7-9-11-14a16 16 0 00-4-3 57 57 0 0110 8l7 9a16 16 0 012 2z" opacity=".5"/>
    <path d="M616 91c-1 1 1 1 2-1l1-1 12-14a16 16 0 013-3 57 57 0 00-9 8l-8 9a16 16 0 00-1 2zM646 99c1 1 2 0 2-1V86a6 6 0 011-3 20 20 0 00-2 7 50 50 0 00-1 7 7 7 0 000 1zM691 26v2h-1l-11 5a6 6 0 00-2 1 20 20 0 016-4 49 49 0 016-3 7 7 0 012-1zM679 3c1-1 2 1 1 1l-1 1-8 8a6 6 0 00-1 2 20 20 0 013-6 50 50 0 015-5 6 6 0 011-1z" opacity=".2"/>
    <path d="M719 61c3 1 0 6-3 4l-2-1c-9-5-20-7-31-8h-8a53 53 0 0121-1 133 133 0 0120 4 18 18 0 013 2z"/>
    <path d="M710 78c2 2-1 4-3 2l-2-2c-7-6-16-10-24-14l-14-2c6 0 19 2 25 5a135 135 0 0116 9 17 17 0 012 2z" opacity=".5"/>
    <path d="M684 108c1 3-4 2-4-1v-2c-1-9-5-19-8-27-1-3-7-9-9-11l15 20a136 136 0 016 18 17 17 0 010 3zM687 7l-1-1-1-2a9 9 0 00-1 2l-2-1a3 3 0 000 3 3 3 0 00-1 1 1 1 0 000 1 6 6 0 002 0 10 10 0 000 3 5 5 0 002-2l1 2a1 1 0 000 1 1 1 0 001-1l1-2h2v-1l-1-1V6l-2 1z"/>
    <path d="M693 97l-1-3a9 9 0 00-1 2h-3a3 3 0 001 2 3 3 0 00-1 1 1 1 0 000 1 6 6 0 001 0 10 10 0 000 3 1 1 0 001 1v-1a5 5 0 002-1l1 2a1 1 0 001 0 2 2 0 000-1v-2h3l-1-1-1-1v-2h-2z" opacity=".2"/>
    <path d="M712 36h-1v-2a9 9 0 00-2 2l-2-1a3 3 0 000 3 3 3 0 00-1 0 1 1 0 000 2 6 6 0 002 0 10 10 0 000 3 1 1 0 001 0 5 5 0 001-2l1 2a1 1 0 001 0 2 2 0 001 0v-2-1h3l-1-1h-1v-3h-2zM638 106a1 1 0 01-1 0l-1-4a12 12 0 00-2 3l-3-1a5 5 0 000 4 5 5 0 00-1 1 2 2 0 000 1 8 8 0 002 1 15 15 0 000 4h1a7 7 0 003-3l1 3a1 1 0 000 1 1 1 0 001 0 2 2 0 000-1l1-3a1 1 0 010-1h4l-1-1-2-1 1-3c-1-2-2-1-3 0zM607 38a1 1 0 01-1 0l-1-4a12 12 0 00-2 4l-3-1a5 5 0 000 3 5 5 0 00-1 1 2 2 0 000 2 7 7 0 002 0 15 15 0 000 4h1a7 7 0 003-2l1 2a1 1 0 000 1 1 1 0 001 0 2 2 0 001-1v-3a1 1 0 011 0h3l-1-2-2-1 1-3h-3z"/>
    <path d="M701 80h-1v-2a7 7 0 00-1 2l-2-1a2 2 0 000 2 2 2 0 000 1 1 1 0 00-1 1 4 4 0 001 0 7 7 0 001 2 4 4 0 001-1l1 1h1v-2h2v-1h-1v-2h-1zM659 104h-1v-2a7 7 0 00-1 2h-2a2 2 0 000 1 2 2 0 000 1 1 1 0 00-1 1 4 4 0 001 0 7 7 0 001 2 4 4 0 001-1l1 1a1 1 0 000 1l1-1v-1-1h2l-1-1v-2h-1z" opacity=".2"/>
    <path d="M618 20v-1l-1-2a6 6 0 00-1 2h-2a2 2 0 001 2 2 2 0 00-1 0 1 1 0 000 1 4 4 0 001 0 8 8 0 000 2h1a4 4 0 001-1v1a1 1 0 001 1 1 1 0 000-1l1-1v-1h1l-1-1 1-2-2 1zM640 67h-1v-2a6 6 0 00-1 2h-2a2 2 0 000 1 2 2 0 000 1 1 1 0 00-1 1 4 4 0 001 0 8 8 0 001 2 4 4 0 001-1l1 1a1 1 0 000 1l1-1v-2h2l-1-1v-2h-1zM624 49l-1-1v-1a6 6 0 00-1 1h-2a2 2 0 001 2 3 3 0 00-1 0 1 1 0 000 1 4 4 0 001 0 8 8 0 000 2v1a4 4 0 002-2v2a1 1 0 001 0 1 1 0 000-1l1-1h2l-1-1-1-1v-2c-1-1-1 0-1 1zM691 53l-1-2a7 7 0 00-1 2l-1-1a2 2 0 000 2 3 3 0 00-1 1 4 4 0 001 1 8 8 0 000 2h1a4 4 0 001-1l1 1h1v-2h2v-1h-1v-2h-2z" opacity=".5"/>
    <path d="M659 49h-1v-2a7 7 0 00-1 2h-2a2 2 0 000 1 2 2 0 000 1 1 1 0 00-1 1 4 4 0 001 0 7 7 0 001 2 4 4 0 001-1l1 1a1 1 0 000 1l1-1v-1-1h2l-1-1v-2h-1z" opacity=".2"/>
    <path d="M648 54l-1-2a7 7 0 00-1 2l-1-1a2 2 0 000 2 3 3 0 00-1 0 1 1 0 000 1 4 4 0 001 0 8 8 0 000 3h1a4 4 0 001-2l1 2h1a1 1 0 000-1v-1h2v-1h-1v-2h-2z" opacity=".3"/>
    <path d="M639 27h-1v-2a6 6 0 00-1 2l-2-1a2 2 0 000 2 1 1 0 00-1 1 4 4 0 002 0 7 7 0 000 3 4 4 0 002-2v2h1a1 1 0 000-1v-1h2v-1h-1v-2h-1z" opacity=".2"/>
    <path d="M658 62h-1v-2a7 7 0 00-1 2l-2-1a2 2 0 000 2 3 3 0 000 1 1 1 0 00-1 1 4 4 0 001 0 8 8 0 001 2 4 4 0 001-1l1 1h1v-2h2v-1h-1v-2h-1z" opacity=".3"/>
  </g>
  <path fill="#6c63ff" d="M427 43c-4-5-12 0-8 5l3 4c11 15 17 34 22 52 1 4 2 9 1 14 2-12 0-24-3-36s-7-23-12-34a30 30 0 00-3-5z" opacity=".5"/>
  <path fill="#6c63ff" d="M354 75c-8-1-9 11-1 11l6 1c23 0 45 9 66 18 5 2 10 5 14 9-10-11-22-19-36-25s-27-10-41-13a36 36 0 00-8-1z"/>
  <path fill="#6c63ff" d="M356 103c-5 0-4 7 1 7h4c14-1 29 3 44 8 3 1 7 2 10 5-8-6-17-11-26-14l-28-6a26 26 0 00-5 0z" opacity=".2"/>
  <path fill="#6c63ff" d="M454 229c1 5 7 2 6-3l-1-3c-4-14-4-30-3-45 0-4 0-8 2-11-4 9-6 19-6 29l1 28a26 26 0 001 5z" opacity=".5"/>
  <path fill="#6c63ff" d="M365 36c-3 0-4 4-1 5h3c8 2 17 6 25 10l5 5a49 49 0 00-13-12 119 119 0 00-16-7 16 16 0 00-3-1z" opacity=".2"/>
  <path fill="#6c63ff" d="M320 148c-7 3-1 14 6 10l6-3c23-11 48-15 74-19 6-1 13-1 19 1-16-4-33-5-49-3s-32 6-48 11a43 43 0 00-8 3z"/>
  <path fill="#6c63ff" d="M341 188c-5 5 3 10 8 6l5-4c16-15 37-26 58-36a243 243 0 00-26 7c-14 7-27 14-39 22a41 41 0 00-6 5z" opacity=".5"/>
  <path fill="#6c63ff" d="M378 252c-1 7 9 7 11 0l1-5c5-22 16-43 28-63a241 241 0 00-18 21l-19 40a41 41 0 00-3 7zM454 6c-4-8-14-2-11 6l3 5c11 23 15 49 18 74 0 6 1 13-2 18 5-15 6-32 4-48s-5-32-9-47a41 41 0 00-3-8zM397 18l1-1 2-6a21 21 0 013 6l6-2a8 8 0 01-1 6 8 8 0 012 2 3 3 0 011 3 13 13 0 01-4 0 25 25 0 010 7 1 1 0 01-1 1h-1a12 12 0 01-4-5l-2 5a2 2 0 01-1 1 1 1 0 01-2-1 4 4 0 010-1l-1-5a1 1 0 00-1-1h-6l2-2 2-2v-6c1-2 3 0 5 1z"/>
  <path fill="#6c63ff" d="M498 43c4-5 11 0 8 5l-3 4c-11 15-17 34-22 52-1 4-2 9-1 14-2-12-1-24 2-36s8-23 13-34a30 30 0 013-5z" opacity=".5"/>
  <path fill="#6c63ff" d="M571 75c8-1 9 11 1 11l-6 1c-23 0-45 9-66 18-5 2-11 5-14 9 10-11 22-19 36-25s27-10 41-13a37 37 0 018-1z"/>
  <path fill="#6c63ff" d="M569 103c5 0 4 7-1 7h-4c-14-1-29 3-44 8-4 1-7 2-10 5 8-6 17-11 26-14l28-6a26 26 0 015 0z" opacity=".5"/>
  <path fill="#6c63ff" d="M560 36c3 0 3 4 0 5h-2c-9 2-17 6-25 10l-5 5a49 49 0 0113-12 119 119 0 0116-7 16 16 0 013-1zM485 238c0 3-4 1-4-1l1-3c2-8 1-18 0-27l-2-7a49 49 0 015 17 121 121 0 011 18 16 16 0 01-1 3z" opacity=".2"/>
  <path fill="#6c63ff" d="M558 219c3 4-3 4-5 0l-2-3a206 206 0 00-36-42 136 136 0 0122 19l19 22a36 36 0 012 4z" opacity=".5"/>
  <path fill="#6c63ff" d="M358 219c-2 4 4 4 6 0l2-3a207 207 0 0136-42 136 136 0 00-22 19l-19 22a36 36 0 00-3 4zM431 238c1 3 5 1 5-1l-1-3c-2-8-1-18 0-27 0-2 0-5 2-7a49 49 0 00-5 17 120 120 0 00-1 18 16 16 0 000 3zM537 65c3-1 3 4 0 4l-2 1c-9 1-17 6-25 10l-5 4a49 49 0 0113-11 121 121 0 0116-7 16 16 0 013-1zM510 9c3-2 5 2 2 4l-2 1c-7 5-14 12-19 19l-4 6a49 49 0 019-16 122 122 0 0112-12 16 16 0 012-2z" opacity=".2"/>
  <path fill="#6c63ff" d="M605 148c7 3 1 14-7 10l-5-3c-23-11-49-15-74-19-6-1-13-1-19 1 16-4 33-5 49-3s32 6 48 11a43 43 0 018 3z"/>
  <path fill="#6c63ff" d="M584 188c5 5-3 10-9 6l-4-4c-16-15-37-26-58-36a243 243 0 0126 7l39 22a41 41 0 016 5z" opacity=".5"/>
  <path fill="#6c63ff" d="M522 260c1 7-9 6-10-1l-1-6c-2-22-10-44-20-65a241 241 0 0115 23c6 13 11 27 15 41a42 42 0 011 8zM528 18a1 1 0 01-1 0v-1l-2-6a21 21 0 00-4 6l-5-2a8 8 0 001 6 8 8 0 00-2 2 3 3 0 00-1 3 13 13 0 004 0 24 24 0 000 7 1 1 0 001 1h1a12 12 0 004-5l2 5a2 2 0 001 1 1 1 0 002-1 4 4 0 000-1l1-5a1 1 0 011-1h6l-2-2-3-2c-1-2 2-4 1-6s-3 0-5 1z"/>
  <path fill="#6c63ff" d="M544 234a1 1 0 01-1 0h-1l-1-7a21 21 0 00-4 6l-5-2a8 8 0 001 6 8 8 0 00-2 2 3 3 0 00-1 3 14 14 0 004 0 25 25 0 000 7 1 1 0 000 1 1 1 0 002 0 12 12 0 004-5l2 5a2 2 0 001 1 1 1 0 002 0 4 4 0 000-2l1-5a1 1 0 011-1h5c1-1 0-2-1-2l-3-2c-1-1 2-4 1-6-2-2-4 0-5 1z" opacity=".2"/>
  <path fill="#6c63ff" d="M588 89a1 1 0 01-1 0l-2-6a21 21 0 00-3 5l-6-1a8 8 0 001 6 8 8 0 00-2 1 3 3 0 00-1 3 13 13 0 004 0 24 24 0 000 7 1 1 0 001 1 1 1 0 001 0 12 12 0 004-5l3 5a2 2 0 000 1 1 1 0 002 0 4 4 0 001-2v-5a1 1 0 011 0h6l-2-3-2-1v-6c-1-2-3-1-5 0zM410 256l-2-1c-1-3 0-6-2-8a29 29 0 00-5 7l-7-2a11 11 0 001 8 11 11 0 00-3 3 4 4 0 00-1 4 19 19 0 005 0 34 34 0 001 10 1 1 0 002 1 17 17 0 006-7l3 7a3 3 0 001 1 2 2 0 002 0 6 6 0 001-3l1-6a2 2 0 011-1 2 2 0 011 0h7c1-2-1-3-2-3l-3-3c-2-2 2-6 0-8-1-3-4 0-7 1zM336 94l-2-1c-1-3 0-6-2-9a29 29 0 00-5 8l-7-2a11 11 0 001 8 11 11 0 00-3 3 4 4 0 00-1 3 19 19 0 005 1 34 34 0 001 10 2 2 0 000 1 2 2 0 002-1 17 17 0 006-6l3 7a3 3 0 001 1 2 2 0 002-1 6 6 0 001-2l1-6a1 1 0 011-1 2 2 0 011 0h7c1-2-1-3-2-4l-3-2c-2-3 2-6 0-9-1-2-4 0-7 2z"/>
  <path fill="#6c63ff" d="M561 194h-1l-1-5a15 15 0 00-3 4l-4-1a6 6 0 001 5 6 6 0 00-2 1 2 2 0 000 2 10 10 0 002 0 18 18 0 001 5 1 1 0 000 1h1a9 9 0 003-4l2 4a2 2 0 000 1 1 1 0 002-1 3 3 0 000-1l1-3a1 1 0 010-1h4c1-1 0-1-1-2l-2-1 1-4c-1-2-3-1-4 0zM460 252h-1l-1-5a16 16 0 00-2 4l-4-1a6 6 0 000 5 6 6 0 00-1 1 2 2 0 00-1 2 10 10 0 003 0 18 18 0 000 5 1 1 0 001 1 9 9 0 004-4l1 4a2 2 0 001 1 1 1 0 001-1 3 3 0 000-1l1-3a1 1 0 010-1 1 1 0 011 0h4l-1-2-2-1v-4c-1-2-2 0-4 0z" opacity=".2"/>
  <path fill="#6c63ff" d="M363 49h-1l-1-5a15 15 0 00-3 4l-4-1a6 6 0 001 4 6 6 0 00-2 2 2 2 0 000 2 10 10 0 003 0 18 18 0 000 5 1 1 0 000 1h1a9 9 0 003-4l2 4a2 2 0 000 1 1 1 0 002-1 3 3 0 000-1l1-3a1 1 0 010-1h5l-2-2-2-1c0-1 2-3 1-5-1-1-3 0-4 1zM415 163a1 1 0 010 1l-1-1-1-5a16 16 0 00-3 5l-4-2a6 6 0 001 5 6 6 0 00-2 1 2 2 0 000 2 10 10 0 002 0 19 19 0 001 6h1a9 9 0 003-3l2 3a2 2 0 000 1 1 1 0 001 0 3 3 0 001-2v-3a1 1 0 011-1h4l-1-1-2-2 1-4c-1-2-3 0-4 0zM377 119l-1-1-1-4a16 16 0 00-2 4l-4-1a6 6 0 000 4 6 6 0 00-1 2 2 2 0 00-1 2 10 10 0 003 0 18 18 0 000 5 1 1 0 000 1l1-1a9 9 0 004-3l1 4a1 1 0 001 0 1 1 0 001 0 3 3 0 000-1l1-4a1 1 0 011 0h4l-1-2-2-1v-5c-1-1-2 0-4 1zM539 129a1 1 0 01-1 0l-2-5a15 15 0 00-2 5l-4-2a6 6 0 001 5 6 6 0 00-2 1 2 2 0 00-1 2 10 10 0 003 0 19 19 0 000 5 1 1 0 001 1h1a9 9 0 003-3l1 3a2 2 0 001 1 1 1 0 001-1 3 3 0 001-1v-3a1 1 0 010-1 1 1 0 011 0h4l-1-1-2-2v-4c-1-2-2 0-3 0z" opacity=".5"/>
  <path fill="#6c63ff" d="M460 121l-1-1-1-4a16 16 0 00-2 4l-4-1a6 6 0 000 4 6 6 0 00-1 1 2 2 0 00-1 2 10 10 0 003 1 18 18 0 000 5 1 1 0 001 0 9 9 0 004-3l1 3a2 2 0 001 1 1 1 0 001 0 3 3 0 000-2l1-3a1 1 0 011-1h4l-1-1-2-1v-5c-1-1-2 0-4 1z" opacity=".2"/>
  <path fill="#6c63ff" d="M436 131a1 1 0 01-1 0l-1-5a16 16 0 00-3 4l-4-1a6 6 0 001 5 6 6 0 00-2 1 2 2 0 000 2 10 10 0 002 0 18 18 0 001 5 1 1 0 000 1 1 1 0 001 0 9 9 0 003-4l2 4a2 2 0 000 1 1 1 0 001-1 3 3 0 001-1v-3a1 1 0 011-1h4l-1-2-2-1v-4c0-2-2 0-3 0z" opacity=".3"/>
  <path fill="#6c63ff" d="M413 67l-1-1-1-4a15 15 0 00-3 4l-4-1a6 6 0 001 4 6 6 0 00-2 1 2 2 0 000 2 10 10 0 002 1 18 18 0 001 5h1a9 9 0 003-3l2 3a2 2 0 000 1 1 1 0 001 0 3 3 0 001-2v-3a1 1 0 011 0 1 1 0 010-1h4l-1-1-2-2 1-4c-1-1-3 0-4 1z" opacity=".2"/>
  <path fill="#6c63ff" d="M458 151h-1l-1-5a16 16 0 00-3 4l-4-1a6 6 0 001 4 6 6 0 00-2 2 2 2 0 000 2 10 10 0 003 0 18 18 0 000 5 1 1 0 000 1 1 1 0 001 0 9 9 0 003-4l2 4a2 2 0 000 1 1 1 0 002-1 3 3 0 000-1l1-3a1 1 0 010-1h4c1-1 0-2-1-2l-2-1c0-1 2-3 1-5-1-1-3 0-4 1z" opacity=".3"/>
  <path fill="url(#a)" d="M535 637a15 15 0 002-8 30 30 0 00-1-4 55 55 0 00-1-5l-2-6-3-9v-1l-1-2a4 4 0 012 0 3 3 0 01-1-1 29 29 0 01-1-4v-3l1-1a20 20 0 00-1-7l1-8 1-4-1-4-1-6-1-23-1-22v-2a58 58 0 00-1-13 20 20 0 000-2 15 15 0 000-2 14 14 0 00-1-2 14 14 0 00-3-5 13 13 0 00-9-5h-1l-1-1a25 25 0 00-2-2 21 21 0 00-2-3 286 286 0 013-7 20 20 0 004-1 23 23 0 0011-20 24 24 0 000-5 24 24 0 00-2-6v-1a10 10 0 000-6 15 15 0 00-1-2 20 20 0 00-2-4h-1a28 28 0 00-2-2 21 21 0 00-3-3 13 13 0 00-5-2 15 15 0 00-3-1l-2 1h-4-1a49 49 0 01-7-2h-2a21 21 0 00-3 0h-5a29 29 0 00-7 2l-1 1h-1l-1 1c-8 5-12 14-13 24a55 55 0 000 9c0 7 1 15 3 22l2 9v2a21 21 0 00-6 8 31 31 0 00-2 12v3l1 3-1 1a83 83 0 000 8v24a1 1 0 010 1l-1 13a61 61 0 000 7l4 18 3 8a2 2 0 000 1 2 2 0 001 0v2a78 78 0 00-3 9 33 33 0 00-2 7 24 24 0 000 3 55 55 0 002 9l4 19 3 13 5 26a56 56 0 01-1 14 116 116 0 00-1 39 196 196 0 007 33h1l1-1v1l-3 5a35 35 0 00-2 4l-1 12a6 6 0 000 2 5 5 0 003 3 21 21 0 006 0 52 52 0 007 0c0 2 2 2 3 3a21 21 0 007 0l11-1 17-1a8 8 0 003-1 8 8 0 003-4 6 6 0 000-2c0-2-1-4-3-4l-6-1a18 18 0 01-11-5 19 19 0 01-4-7l2 1a7 7 0 010-1 9 9 0 01-1-2 11 11 0 010-2 32 32 0 013-9l8-22c6-19 12-39 12-59l-2-22 1-15v-1-2a13 13 0 003-4zm-61-65a6 6 0 01-2 3v1h-1v-7l-1-2 1 1a20 20 0 012 2 4 4 0 011 2zm36 130a23 23 0 01-2 6 120 120 0 00-9 30 139 139 0 00-2 20c0 5 0 10-2 14v2-1 2h-1a19 19 0 01-2-6v-1h-1a193 193 0 01-3-45 21 21 0 011-5l2-5a31 31 0 002-7 108 108 0 001-20c0-6 1-13 3-19v-2l1-7v-1l2 4a91 91 0 019 26 42 42 0 011 15z" transform="translate(-28 -79)"/>
  <path fill="#6c63ff" d="M430 430l-1 8-1 8v27l-1 21 4 18 2 8a2 2 0 001 1 2 2 0 002 0l11-1-2-9-1-8-2-24-1-14c0-6-1-13-3-18a36 36 0 00-8-17z"/>
  <path d="M430 430l-1 8-1 8v27l-1 21 4 18 2 8a2 2 0 001 1 2 2 0 002 0l11-1-2-9-1-8-2-24-1-14c0-6-1-13-3-18a36 36 0 00-8-17z" opacity=".1"/>
  <path fill="#3f3d56" d="M449 699a34 34 0 00-2 4l-1 11a6 6 0 000 3l3 2c6 2 13 0 19 0l18-2a9 9 0 003-1 8 8 0 003-4 5 5 0 000-1c1-2-1-4-3-5l-6-1a19 19 0 01-17-16l-11 1-3 3-3 6z"/>
  <path d="M449 699a34 34 0 00-2 4l-1 11a6 6 0 000 3l3 2c6 2 13 0 19 0l18-2a9 9 0 003-1 8 8 0 003-4 5 5 0 000-1c1-2-1-4-3-5l-6-1a19 19 0 01-17-16l-11 1-3 3-3 6z" opacity=".1"/>
  <path fill="#3f3d56" d="M466 702a35 35 0 00-2 4l-2 11a5 5 0 000 3l4 2c6 2 12 0 19 0l18-2a9 9 0 002-1 8 8 0 004-4 5 5 0 000-1c0-2-2-4-4-5l-6-1a19 19 0 01-17-16l-11 1-2 3-3 6z"/>
  <path fill="#33313f" d="M509 603c0 20-6 40-13 59l-8 22c-2 4-4 9-2 14-6-3-12-4-17-3 2-4 2-10 2-15a129 129 0 012-20 114 114 0 0110-30 23 23 0 002-6 40 40 0 00-1-15 86 86 0 00-12-29v1a86 86 0 01-2 9l-2 18a101 101 0 01-1 20 30 30 0 01-2 8l-2 4a20 20 0 00-1 5 179 179 0 003 45 29 29 0 00-15 4 185 185 0 01-8-33 108 108 0 011-39 53 53 0 001-13c0-9-2-18-4-26l-4-13-4-19-2-12a31 31 0 011-7 76 76 0 0111-21c17 1 36-1 53-2a3 3 0 014 3l7 38a96 96 0 012 16l-1 16 2 21z"/>
  <path d="M472 581a86 86 0 01-1 9l-12-21-3-5-3-5-1-3a23 23 0 01-2-5c2 0 5 3 6 4a76 76 0 015 6 67 67 0 016 8 37 37 0 015 12z" opacity=".1"/>
  <path fill="#efb7b9" d="M487 396s-10 16-8 19-32-3-32-3 18-16 17-22 23 6 23 6z"/>
  <circle cx="478.1" cy="378.2" r="22.5" fill="#efb7b9"/>
  <path fill="#6c63ff" d="M487 412a23 23 0 00-9-7 34 34 0 00-7-2l-9-1h-7a11 11 0 00-2 2l-10 8-4 1c-4 2-7 6-9 10-2 5-2 10-2 15a26 26 0 001 5 33 33 0 001 4 84 84 0 013 10l6 27a10 10 0 001 4 13 13 0 003 3 21 21 0 013 3 4 4 0 011 1l-2 4a17 17 0 00-4 7 3 3 0 00-1 2 2 2 0 01-1 3 5 5 0 000 4 63 63 0 0022 5h5l4 1a43 43 0 006 0c10 0 20 0 29-4 1-5-1-10-2-15l-4-22-3-15c-1-5-1-11 1-16 1-4 1-9 3-13s2-10 0-14c-1-6-7-10-13-10z"/>
  <path fill="#33313f" d="M498 366c1-4-1-8-3-11-3-4-7-7-11-8h-11l-9-2a30 30 0 00-9 1 32 32 0 00-8 2c-9 4-15 15-16 25s1 21 3 31l2 9 5 29c1 9-1 20-5 29a62 62 0 0029-32l4-11 4-10a31 31 0 002-12v-9c0-3 1-6 3-8l7-4a28 28 0 009-8c2-2 2-2 2-5s2-4 2-6z"/>
  <path fill="#efb7b9" d="M498 535l1 7 1 5a23 23 0 011 6l-1 4-2 1s-2 1-1 2h1s2 1 1 2a6 6 0 00-2 1 2 2 0 00-1 2 1 1 0 002 0 5 5 0 00-1 2c3 1 5 0 8-1a27 27 0 002-2 14 14 0 006-12 26 26 0 00-1-3 51 51 0 00-1-6l-2-6-4-13a2 2 0 00-1-1 2 2 0 00-1 0 17 17 0 00-5 0l-3 2 1 3a21 21 0 012 7z"/>
  <path d="M497 422a7 7 0 011 2c3 6 3 13 3 19l1 23 2 22v6c2 1 2 2 1 4-1 9-3 18 0 27a3 3 0 000 1 7 7 0 00-4 0l-4 1-5 2a93 93 0 01-3-12l-2-11-2-4c-4-7-6-15-8-22a33 33 0 01-1-12 41 41 0 001-5 43 43 0 00-1-5 36 36 0 011-16c2-5 3-10 6-14s9-6 14-6z" opacity=".1"/>
  <path fill="#6c63ff" d="M498 421a6 6 0 011 2c3 6 3 13 3 19l1 23 2 22v6c2 1 2 3 2 4-1 9-4 19-1 27a3 3 0 000 2 7 7 0 00-4-1l-4 2-5 1a94 94 0 01-3-12l-2-11-2-4c-4-7-6-14-8-22a33 33 0 01-1-11 41 41 0 001-6 42 42 0 00-1-5 36 36 0 011-16c2-4 3-9 6-13s9-6 14-7z"/>
  <g opacity=".1">
    <path d="M495 355c-3-4-7-7-11-8h-11l-9-2a30 30 0 00-9 1 32 32 0 00-8 2 23 23 0 00-4 2 34 34 0 017-2 30 30 0 019 0l9 2h11c5 1 8 4 11 7 2 4 5 8 3 12l-2 6c-1 2 0 3-2 5a28 28 0 01-7 6l3-1a28 28 0 009-8c2-2 2-2 2-5s2-4 2-6c1-4-1-8-3-11zM478 389a10 10 0 011-1l-6 4c-2 2-3 5-3 8l1 9a31 31 0 01-2 12l-5 9-4 12a62 62 0 01-23 29h-1a62 62 0 0029-32l4-11 4-10a31 31 0 002-12v-9c0-3 1-6 3-8z"/>
  </g>
  <path fill="url(#b)" d="M743 512a18 18 0 000-4c-1-3-3-7-6-8a53 53 0 01-10-4v-22-1a43 43 0 00-1-9l-3-12v-8a15 15 0 00-1-6c-2-4-5-6-9-7l-11-2c-5-1-20-3-26 2a6 6 0 00-1 1 4 4 0 00-1 1 5 5 0 000 1v1l1 3a6 6 0 01-1 1 9 9 0 01-1 4h-1v1a5 5 0 00-1 1 5 5 0 000 1 6 6 0 000 2v1a10 10 0 001 3l1 1 1 1v1a19 19 0 000 6 21 21 0 008 12v1a62 62 0 01-1 11v5a10 10 0 01-5 0 21 21 0 00-2-1c-3-1-6 2-8 2h-1a4 4 0 00-2-1l-4-2-4-4a5 5 0 01-1-2c0-2-2-3-3-5a3 3 0 00-2-1 9 9 0 00-1-1l-4-5a43 43 0 01-3-5l-1-1v-3l-1-2a40 40 0 00-1-5l-2-5v1c-2-3-3-4-5-3-2 0-3 5-3 10l1 6v1a11 11 0 000 2 2 2 0 000 1l1 1v1a6 6 0 011 2 4 4 0 010 1v1a3 3 0 000 2 10 10 0 001 1l5 8 1 2a4 4 0 001 1v1a19 19 0 001 3 16 16 0 001 2v2a35 35 0 005 6l2 2 7 8a10 10 0 004 2 4 4 0 003 0v3h1a3 3 0 011 2 5 5 0 010 2c-2 5-4 11-7 15v1a30 30 0 016 4 28 28 0 013 4v3c1 12-4 23-8 35l-2 10a20 20 0 00-2 1v7a11 11 0 01-1 4 28 28 0 01-1 2c-3 5-3 10-4 15 0 4 1 7-1 10l-5 16a15 15 0 010 3l-1 3a12 12 0 000 4 38 38 0 01-2 14c-2 4-3 8-2 11a16 16 0 00-4 10 15 15 0 01-1 2 13 13 0 01-1 3 22 22 0 00-3 12c-3 4-4 9-5 14l-2 15c-2 6-5 13-5 20-3 2-5 6-5 9l-3 12-2 4a14 14 0 00-1 1 24 24 0 00-1 5v7a10 10 0 01-2 2 6 6 0 01-1 0v-1c-2 2-7 1-9 4a4 4 0 001 6 6 6 0 001 0l1 1c5 1 10 3 15 2a5 5 0 002-1 6 6 0 002-2l2-3a47 47 0 006 1v5l3-1a2 2 0 000-1v-2h1a19 19 0 008-2c-1-7 1-13 4-20l2-6 9-27 6-19 7-24 4-10a164 164 0 019-21l3-6 2-7a114 114 0 016-15h1l2 10a38 38 0 010 12l-1 9a15 15 0 000 4h1l2 6v1a43 43 0 011 8c0 5 3 10 1 14-5 13-3 28-6 42-1 7-6 14-6 21a180 180 0 002 16 15 15 0 001 4 17 17 0 001 3l-1 1a6 6 0 001 6 5 5 0 001 1 10 10 0 003 1 15 15 0 004 1 8 8 0 001 0h1l4 1v1a2 2 0 001 1v1a2 2 0 001 0h5v-2a4 4 0 004-1 5 5 0 001-2l4-14v-1a48 48 0 002-17c-2-18 3-37 1-55a133 133 0 012-34l1-7v-14l1-5a232 232 0 002-30v-8l-1-1v-1a6 6 0 003-2l1-4 2-10a121 121 0 004-14 52 52 0 002-11 2 2 0 000-1v-1a3 3 0 001-1 6 6 0 000-2l1-8 1-5 3-22 1-6 1-6v-1-1a8 8 0 001-4c1-3-1-7-1-10zm-26 83a24 24 0 01-2-6 12 12 0 010-2v-1a5 5 0 000-1 4 4 0 00-1-1l-1-2a5 5 0 010-2 11 11 0 010-1 74 74 0 011-17v-3l1-1a4 4 0 001 0 8 8 0 001-2l3-7 2-2v1c0 5 0 11-2 16a11 11 0 00-1 3 6 6 0 000 1v2a5 5 0 010 1l-1 2a3 3 0 000 2 2 2 0 001 0 2 2 0 000 1v3a65 65 0 000 7v8a5 5 0 01-1 3 4 4 0 010 1l-1-3z" transform="translate(-28 -79)"/>
  <ellipse cx="634.6" cy="463.4" fill="#fbbebe" rx="5.6" ry="16" transform="rotate(-12 233 562)"/>
  <path fill="#3f3d56" d="M656 722a6 6 0 003 7 10 10 0 002 1 15 15 0 005 0l5-1a1 1 0 011 1 26 26 0 000 3 2 2 0 000 1 2 2 0 001 0h6a53 53 0 00-2-14 3 3 0 000-1 3 3 0 00-2-1 10 10 0 00-4 0l-5 2c-1 1-4 2-5 1s-4-2-5 1z"/>
  <path fill="#fbbebe" d="M577 717a15 15 0 01-6 4l-1 1a6 6 0 008 3 4 4 0 001-1 5 5 0 001-3 7 7 0 000-4c-1-3-2-1-3 0z"/>
  <path fill="#3f3d56" d="M598 730a2 2 0 01-1 1l-2 1a67 67 0 00-2-11c-2 0-3 2-4 4l-3 4a5 5 0 01-1 2 5 5 0 01-2 1l-15-3a8 8 0 01-2-1 4 4 0 01-1-6c2-2 6-2 9-4a23 23 0 01-1 5l8-6a5 5 0 013-1 6 6 0 012 0 23 23 0 018 5c2 0 3 2 4 3v6z"/>
  <circle cx="666.4" cy="379.2" r="20.7" fill="#fbbebe"/>
  <path fill="#3f3d56" d="M707 501a49 49 0 01-2 12 121 121 0 01-3 14c-2 3-3 7-3 10l-1 4a6 6 0 01-3 2 4 4 0 00-2 2 15 15 0 01-2-4l-5-17a2 2 0 010-2 2 2 0 011 0 9 9 0 003-2 4 4 0 001-1 5 5 0 000-3v-8a66 66 0 010-7v-2l2-4c1-1 5 0 6 1l8 1a20 20 0 010 4zM624 402l-5 4-5 3a3 3 0 01-2 1 3 3 0 01-2-2l-1-2-5-8a5 5 0 01-1-3v-1a6 6 0 00-1-3l-1-2a8 8 0 011-4 7 7 0 012-2l1-1a3 3 0 011 0h3l7 11 4 5h1a6 6 0 011 2l2 2z"/>
  <path fill="#fbbebe" d="M659 400c2 3 3 7 2 10a6 6 0 01-1 3c-1 2-4 2-7 2a4 4 0 00-3 1 3 3 0 000 4 8 8 0 004 2c4 2 8 3 13 3l6-1a65 65 0 017-1h8l7-1a2 2 0 001-1l-1-2c-3-2-8-4-10-9l-2-6-3-6a42 42 0 010-6 8 8 0 00-2-6l-6-1c-4 0-10 1-13 4l-3 3c-1 1-2 1-1 2l2 3a22 22 0 012 3z"/>
  <path fill="#3f3d56" d="M700 429a113 113 0 01-6 22 86 86 0 00-4 11l-1 9-3 12a76 76 0 00-1 18 8 8 0 000 3l2 2a5 5 0 01-1 4 12 12 0 01-2 3c-9 3-19 2-29 2-9 1-18 3-27 1-1-4 1-8 3-12 4-11 8-23 8-35a36 36 0 00-1-4c-1-8 0-17 3-25l1-16a29 29 0 010-5 9 9 0 012-5h2a20 20 0 003 1 12 12 0 012 0 8 8 0 004 0 10 10 0 003-1l2-1v-4a12 12 0 011-3 5 5 0 014-3 22 22 0 016 1l11 1h5l1 1a7 7 0 010 2c-1 2 1 5 3 7a11 11 0 003 2l3 1a5 5 0 012 2 8 8 0 011 3 17 17 0 010 6z"/>
  <path d="M700 429a113 113 0 01-6 22 86 86 0 00-4 11l-1 9-3 12a15 15 0 01-4 1 24 24 0 01-8 0l-14-2c-6-1-12-1-16-5l-5-8a36 36 0 00-1-4c-1-9 0-17 3-25l1-16a29 29 0 010-5 9 9 0 012-5 7 7 0 011 0h1a4 4 0 011 0 18 18 0 012 0 8 8 0 002 1h4a7 7 0 015 0 30 30 0 013 3 12 12 0 003 2 35 35 0 0027-1 5 5 0 012-1 5 5 0 012 1l2 1a8 8 0 011 3 17 17 0 010 6z" opacity=".1"/>
  <path fill="#6c63ff" d="M709 422a53 53 0 01-12-5 5 5 0 00-2 0 5 5 0 00-2 0 35 35 0 01-27 1 12 12 0 01-3-2 30 30 0 00-3-2c-3-3-8 0-12-1a18 18 0 00-2-1c-2-1-5 2-8 1a49 49 0 00-3 9 97 97 0 000 11v6a3 3 0 011 1 3 3 0 010 2l-7 16a33 33 0 016 4c4 4 5 9 9 13s10 5 16 5l14 2a24 24 0 008 0 15 15 0 004-1 7 7 0 002-1 8 8 0 001-2l3-7 2-2 16-14a35 35 0 005-6c3-4 0-10 0-15a18 18 0 000-3c-1-4-3-8-6-9z"/>
  <path d="M624 402l-5 4-5 3a3 3 0 01-2 1 3 3 0 01-2-2 7 7 0 010-3 7 7 0 013-3 18 18 0 016-4 2 2 0 011 0 2 2 0 011 0 6 6 0 011 2l2 2z" opacity=".1"/>
  <path fill="#6c63ff" d="M636 413c-2 0-3-1-5-3l-4-3a3 3 0 010-1 5 5 0 01-1-1 14 14 0 00-3-5 2 2 0 00-1-1 2 2 0 00-2 0 18 18 0 00-6 4 7 7 0 00-2 3 7 7 0 00-1 2 18 18 0 002 8l1 1a35 35 0 004 6l3 3 7 7a10 10 0 003 3 4 4 0 004-1 5 5 0 001-2l3-12a47 47 0 000-5c0-2-2-3-3-3z"/>
  <path fill="#33313f" d="M696 553a231 231 0 01-2 30v5l-1 14-1 7a132 132 0 00-2 33c2 19-2 37-1 56a45 45 0 010 10 45 45 0 01-2 7l-4 15a5 5 0 01-1 2 5 5 0 01-4 1c-6 0-11-3-16-5a6 6 0 01-2-1l-1-5c0-2-2-2-3-4a14 14 0 01-1-4l-1-16c-1-7 4-14 6-21 3-14 0-29 5-42 2-4 0-9-1-14a43 43 0 00-1-8c-1-4-3-7-3-11l1-9a37 37 0 000-12l-2-10a113 113 0 00-6 15l-3 7-3 6a165 165 0 00-9 21l-3 10-8 24-6 19-9 27c-3 8-6 17-5 25a19 19 0 01-9 2 52 52 0 01-15-3l-5-3c-2-3-2-7-1-11a24 24 0 011-4l3-5 2-12c1-4 2-7 5-10l5-19 2-15c0-5 3-10 6-14a22 22 0 013-12 13 13 0 001-3 15 15 0 000-2 16 16 0 014-10c-1-3 1-7 2-11a38 38 0 002-14 12 12 0 010-4l1-3a16 16 0 001-3c0-6 2-11 5-16v-9c1-6 1-11 4-16l1-2a11 11 0 001-4v-6c5-5 13-6 20-6s14 0 20-2l6-1c5-1 10 0 15 2-1 3 1 5 2 8a93 93 0 017 36z"/>
  <path d="M673 555l-12 26-2-10 6-14zM707 501a4 4 0 01-2 1 11 11 0 01-4 0l-9-3a4 4 0 01-1 0l2-4h6l7 2a20 20 0 011 4z" opacity=".1"/>
  <path fill="#6c63ff" d="M715 442v2a19 19 0 010 6l-1 6-1 6-3 22v5l-2 8a6 6 0 010 2 4 4 0 01-3 2 11 11 0 01-4-1l-9-2a3 3 0 01-1 0 2 2 0 01-1-3l1-2v-4a11 11 0 011-3c3-7 1-14 2-22a33 33 0 017-15 44 44 0 018-7l4-3c2-1 1 1 2 3z"/>
  <path fill="#33313f" d="M647 356l-1 6-3 6c-1 4 2 7 4 10 9 12 8 27 5 41a207 207 0 01-10 32c-1 3-2 6-5 8 5-1 10-2 14-1 6 2 11 7 17 6 4-1 6-4 9-6 6-3 14-1 20 0a8 8 0 005 0 7 7 0 002-2 25 25 0 005-14 17 17 0 00-4-13l-5-4a12 12 0 01-1-6c-1-11 2-22-1-33-1-4-3-7-3-11-1-5 1-10-1-15-2-3-5-6-9-7a42 42 0 00-11-2c-6 0-25-3-27 5z"/>
  <g opacity=".1">
    <path d="M652 419a207 207 0 01-10 31l2-4a206 206 0 0010-32c3-13 4-29-5-40-2-3-4-5-4-9a11 11 0 00-2 4c-1 3 2 6 4 9 9 12 8 27 5 41zM647 361a10 10 0 001-3 17 17 0 000-5 5 5 0 00-1 3v5zM706 451a7 7 0 01-2 3 8 8 0 01-5 0c-6-1-14-3-20 0-3 2-5 5-9 6-6 1-11-5-17-6-4-1-8-1-12 1a18 18 0 01-4 4c5-1 10-2 14-1 6 2 11 7 17 6 4-1 6-4 9-6 6-3 14-1 20 0a8 8 0 005 0 7 7 0 002-2 27 27 0 004-8 29 29 0 01-2 3z"/>
  </g>
  <ellipse cx="749.2" cy="722.6" fill="#6c63ff" rx="40.2" ry="6.8"/>
  <path fill="#6c63ff" d="M766 711a12 12 0 004-5c0-3-1-5-3-6s-5 1-7 2-4 4-7 4a11 11 0 003-10 4 4 0 00-1-2c-1-2-3-1-5 0-5 4-7 11-7 17v-7c0-2-1-5-3-6a8 8 0 00-4-1c-2 0-4 0-6 2s-2 6 0 8l7 5a15 15 0 015 5 4 4 0 010 1h15a41 41 0 009-7z"/>
</svg>
