<svg xmlns="http://www.w3.org/2000/svg" width="100%" height="100%" data-name="Layer 1" viewBox="0 0 883 612">
  <defs/>
  <path fill="#e6e6e6" d="M103 530s-112-51-73-87 73 87 73 87z"/>
  <path fill="#e6e6e6" d="M101 542s-52-169 24-161-24 161-24 161z"/>
  <path fill="#e6e6e6" d="M63 527l2 29h1a130 130 0 000 13c3 29 16 43 31 43s26-14 29-43a130 130 0 001-13l2-29z"/>
  <path fill="#fff" d="M127 556a130 130 0 01-1 13H66a130 130 0 010-13h-1z"/>
  <path fill="#e6e6e6" d="M835 548s-87-40-56-68 56 68 56 68z"/>
  <path fill="#e6e6e6" d="M834 557s-40-131 19-125-19 125-19 125z"/>
  <path fill="#e6e6e6" d="M805 545l1 22v1a101 101 0 001 10c2 22 12 33 23 33s21-11 24-33a101 101 0 000-10v-1l2-22z"/>
  <path fill="#fff" d="M854 567v1a101 101 0 010 10h-47a101 101 0 01-1-10v-1z"/>
  <path fill="#e6e6e6" d="M293 183v-39h-6v39a8 8 0 106 0z"/>
  <path fill="#e6e6e6" d="M307 572h-41V74h-16v498h-41a37 37 0 00-37 37h172a37 37 0 00-37-37z"/>
  <path fill="#6c63ff" d="M172 148h172L333 17a18 18 0 00-18-17H200a18 18 0 00-18 17z"/>
  <path fill="#a0616a" d="M411 379a12 12 0 00-14 10l-5 32 16 4 12-30a12 12 0 00-9-16z"/>
  <path fill="#6c63ff" d="M411 421c9 36 5 69-29 95-41-11-68-38-85-78a20 20 0 0112-26 20 20 0 0121 6l40 46 19-47z"/>
  <path fill="#e6e6e6" d="M620 611c-37-2-61-15-66-41l6-11 68 31a10 10 0 010 18z"/>
  <path fill="#e6e6e6" d="M591 611l-56 1a12 12 0 01-12-11l-1-13-15-24 13-13c22 22 46 40 74 51a5 5 0 01-3 9z"/>
  <path fill="#2f2e41" d="M486 517c-25 44-49 74-81 90-40 13-68-4-91-39l65-43 10 9 86-66a11 11 0 0115 1l74 90-9 15z"/>
  <path fill="#2f2e41" d="M508 569l-34-52 8-15 45 47-19 20z"/>
  <circle cx="311.8" cy="369" r="34" fill="#a0616a"/>
  <path fill="#a0616a" d="M321 432l-38-13a47 47 0 007-30h31c-2 15-2 30 0 43z"/>
  <path fill="#6c63ff" d="M402 523c-6 2-6 10-12 13-26 12-53 22-72 40-44-30-85-123-32-164 18 11 34 18 34 0z"/>
  <path d="M379 483l-19-6-36 28-17-59c-1-4-3-2-5 1a20 20 0 00-33 13c-2 43 11 79 43 107 42-9 59-37 67-74l-2-1 2-9z" opacity=".2"/>
  <path fill="#2f2e41" d="M316 324c12 3 24 6 25 10 12 3 20 10 22 20a6 6 0 01-6 8c-7 0-16-1-22-4-18 12-21 42-13 63l-13-1-13-38-3 36-28-3 3-46a69 69 0 0111-31 26 26 0 012-3 36 36 0 0135-11z"/>
  <path fill="#3f3d56" d="M380 438l31 37 47-55-31-38-47 56z"/>
  <path fill="#f2f2f2" d="M450 421l-37-30c2-5 12-3 12-3l29 29a16 16 0 013 3z"/>
  <path fill="#3f3d56" d="M452 419l-42-33-47 71 44 30c4 1 8-2 8-2l43-65z"/>
  <path fill="#6c63ff" d="M414 398l1-1 27 19-1 1zM407 477l35-53h1l-35 53zM374 457h1l28 21v1zM373 451l37-53h1l-37 53z"/>
  <path fill="#b3b3b3" d="M421 387l34 31h-1zM418 388h1l34 30v1zM416 389l36 30z"/>
  <path fill="#a0616a" d="M397 449a12 12 0 00-17 3l-18 27 13 11 23-22a12 12 0 00-1-19z"/>
  <path fill="#6c63ff" d="M379 487c-8 37-25 65-67 74-32-28-45-64-43-107a20 20 0 0121-18 20 20 0 0117 14l17 59 37-34z"/>
  <path fill="#3f3d56" d="M883 612H0v-2h883v2z"/>
  <path fill="#e6e6e6" d="M461 92a2 2 0 00-2 2v156a2 2 0 002 2h130a2 2 0 002-2V94a2 2 0 00-2-2z"/>
  <path fill="#fff" d="M475 236h103V107H475z"/>
  <path fill="#e6e6e6" d="M678 133a1 1 0 00-1 1v77a1 1 0 001 2h93a1 1 0 001-2v-77a1 1 0 00-1-1z"/>
  <path fill="#fff" d="M686 142v61h77v-61z"/>
  <path fill="#e6e6e6" d="M544 103h-36a5 5 0 01-4-8l18-31v-1a5 5 0 014-2 5 5 0 015 3l18 31a5 5 0 01-5 8zm-37-5a1 1 0 001 1h36a1 1 0 001-1 1 1 0 000-1l-18-31a1 1 0 00-2 0l-18 31a1 1 0 000 1z"/>
  <circle cx="526.3" cy="67.5" r="3" fill="#e6e6e6"/>
  <path fill="#e6e6e6" d="M734 135h-20a3 3 0 01-2-4l10-17a3 3 0 012-1 3 3 0 013 1l9 17a3 3 0 01-2 4zm-20-3a1 1 0 000 1h20a1 1 0 001 0 1 1 0 000-1l-10-17a1 1 0 00-1 0l-10 17z"/>
  <circle cx="724.3" cy="116" r="1.6" fill="#e6e6e6"/>
  <path fill="#e6e6e6" d="M476 187a26 26 0 0115-14 26 26 0 0122 1c8 4 14 11 22 15a56 56 0 0025 5 55 55 0 0028-7 2 2 0 00-2-2 53 53 0 01-50 0l-23-14a29 29 0 00-22-2 30 30 0 00-18 17c-1 2 2 3 3 1zM474 215a114 114 0 0150 0c15 4 30 10 45 5 7-2 13-6 17-12 1-2-2-4-3-2-6 12-22 14-34 12l-24-6a117 117 0 00-52 0c-2 0-1 3 1 3zM473 148a119 119 0 0148 2c14 3 29 11 44 10 7-1 14-3 19-9 2-1 0-3-2-2-4 5-10 7-16 8-7 1-15-1-21-3l-23-7a121 121 0 00-50-2c-2 0-1 3 1 3zM699 141a52 52 0 0114 25 52 52 0 01-11 44c-1 2 1 4 2 2a55 55 0 0013-28 55 55 0 00-16-45c-1-2-3 0-2 2zM744 134c-9 7-14 18-15 29-1 12 4 23 11 32a62 62 0 0015 14c2 1 3-2 1-3-9-6-17-14-21-25a40 40 0 010-30 33 33 0 0111-14c1-1 0-4-2-3z"/>
  <circle cx="533.3" cy="150.5" r="14" fill="#e6e6e6"/>
</svg>