<svg xmlns="http://www.w3.org/2000/svg" viewBox="0 0 512 512">
  <g fill="#33a854">
    <path d="M147.975 504.395h356.421V278.763c-86.641-22.759-161.572 12.203-165.885 14.567l-82.507-1.273-104.952 208.558"/>
    <path d="M7.631 421.169V203.553s124.029-14.521 217.311 80.456l35.137 35.137-195.127 119.93-56.82-17.907"/>
  </g>
  <g fill="#9ce0b8">
    <path d="M16.571 202.935C32.825 227.403 80.4 311.273 67.027 437.652l74.592-45.847c-16.325-98.835-60.995-163.45-79.458-186.672-20.074-2.568-36.168-2.574-45.59-2.198zM196.074 358.335l63.762-39.19-35.137-35.137c-31.545-32.119-66.602-51.704-99.195-63.574 19.422 17.291 52.363 57.081 70.57 137.901zM354.337 286.673c-30.722 27.679-89.394 94.751-111.597 217.637h87.787c2.278-131.066 62.616-210.065 81.109-231.251-24.404 3.055-44.39 8.956-57.299 13.614zM504.397 278.676c-17.699-4.65-34.908-6.888-51.128-7.489-8.295 27.628-30.005 112.246-27.137 233.122h78.265V278.676z"/>
  </g>
  <path fill="#8ec1ed" d="M113.469 92.002c19.058 0 34.507-15.449 34.507-34.507s-15.449-34.507-34.507-34.507c-9.711 0-18.479 4.017-24.749 10.473C82.333 18.272 67.315 7.604 49.804 7.604c-23.306 0-42.199 18.893-42.199 42.199s18.893 42.199 42.199 42.199h63.665z"/>
  <path fill="#3c66b1" d="M129.598 26.99a34.52 34.52 0 011.193 9.002c0 19.058-15.449 34.507-34.507 34.507H32.62a41.984 41.984 0 01-22.581-6.558c5.814 16.351 21.419 28.061 39.764 28.061h63.664c19.058 0 34.507-15.449 34.507-34.507.001-13.23-7.446-24.714-18.376-30.505z" opacity=".23"/>
  <circle cx="414.162" cy="99.865" r="90.233" fill="#ffcd00"/>
  <path fill="#ddb200" d="M461.407 22.979c8.462 13.742 13.347 29.922 13.347 47.244 0 49.834-40.399 90.233-90.233 90.233-17.323 0-33.502-4.885-47.244-13.347 15.882 25.792 44.375 42.99 76.886 42.99 49.834 0 90.233-40.399 90.233-90.233.001-32.512-17.198-61.005-42.989-76.887z"/>
  <path fill="#8ec1ed" d="M338.511 293.33s-97.307-28.144-156.741 8.293c-57.864 35.475-34.983 55.451-173.639 119.546v83.226h150.914s67.872-70.711 81.575-133.11c17.482-79.6 97.891-77.955 97.891-77.955z"/>
  <path fill="#3c66b1" d="M289.432 284.926c-24.14 8.119-53.869 27.19-63.7 71.952-7.435 33.853-30.812 70.152-50.646 96.28-17.596 23.179-44.984 36.829-74.085 36.829H8.132v14.889h150.914s67.872-70.711 81.575-133.11c17.48-79.6 97.89-77.956 97.89-77.956s-20.822-6.018-49.079-8.884z" opacity=".23"/>
  <g fill="#266659">
    <path d="M205.962 445.608c-.297.316 0 0 0 0l-6.378 8.086a98.074 98.074 0 01-77.888 37.326L7.872 489.987v14.889h150.914s.158-.165.455-.481h344.895V278.677c-17.699-4.65-34.908-6.888-51.128-7.489l-.025.085a250.226 250.226 0 00-13.294-.124l-12.232 43.555c-15.981 56.909-62.674 99.951-120.693 111.259l-100.802 19.645z" opacity=".26"/>
    <path d="M8.132 298.076V420.1s57.624-23.164 79.402-40.869c.001.001-79.402-9.1-79.402-81.155z" opacity=".17"/>
  </g>
  <path d="M506.328 271.408c-16.087-4.226-32.889-6.751-50.04-7.572a7.593 7.593 0 00-1.634-.056c-14.008-.581-28.238-.035-42.497 1.659a7.656 7.656 0 00-.706.078 276.991 276.991 0 00-22.401 3.658 280.326 280.326 0 00-16.293 3.863l-.038.01c-16.852 4.529-29.23 9.542-34.968 12.19-12.38-3.263-61.127-14.773-108.534-7.701-34.145-34.353-72.205-54.301-105.568-65.861a7.568 7.568 0 00-1.727-.59 297.96 297.96 0 00-39.175-10.389c-43.325-8.369-74.688-4.851-76.001-4.698a7.605 7.605 0 00-6.72 7.552v217.618c0 .951.182 1.858.502 2.698v80.529c0 4.2 3.405 7.604 7.604 7.604h233.281l.012.001.022-.001h262.946a7.604 7.604 0 007.604-7.604V278.763a7.597 7.597 0 00-5.669-7.355zm-61.824 7.326c-8.42 25.653-27.952 98.762-25.063 218.057h-81.407c1.444-69.24 22.324-124.033 39.946-158.246 16.38-31.803 32.942-52.018 38.35-58.241a251.86 251.86 0 0128.174-1.57zm-50.408 5.01c-7.962 10.678-18.636 26.566-29.356 47.297-18.517 35.807-40.467 93.195-41.919 165.75H250.47c15.361-83.221 48.194-135.234 73.477-164.489 25.406-29.396 48.307-42.148 52.925-44.544a267.965 267.965 0 0117.224-4.014zm-217.96 213.047c20.391-23.578 61.295-75.528 71.912-123.875 6.65-30.281 23.663-51.563 50.568-63.254 13.979-6.074 27.22-7.923 34.336-8.485-6.262 5.746-12.963 12.508-19.857 20.425-27.053 31.069-62.227 86.495-78.073 175.189h-58.886zm10.18-206.355c-6.52-18.272-18.139-34.762-29.539-47.829 18.185 9.642 36.741 22.216 54.391 38.618-8.574 2.264-16.936 5.276-24.852 9.211zm-69.496-65.023c6.739 5.308 44.334 36.177 56.08 72.814-18.235 11.808-28.174 22.035-38.641 32.811-.127.131-.254.263-.382.393-12.397-59.261-39.646-96.837-58.187-116.574 1.555.277 3.125.567 4.712.876a282.382 282.382 0 0136.418 9.68zm-101.585-8.395c13.285 18.549 41.281 69.615 42.088 171.111-11.88 6.506-25.75 13.574-42.088 21.319v-192.43zm57.173 162.536c-2.188-96.012-28.224-147.382-43.2-169.156 5.843.074 12.745.358 20.479 1.026 4.141 3.266 16.1 13.419 29.185 31.176 14.633 19.857 33.668 53.535 41.982 101.748-10.719 9.991-24.83 21.231-48.446 35.206zm75.567 117.237H15.737v-70.77c21.043-9.828 38.305-18.639 52.681-26.643.135-.069.265-.143.394-.22 44.676-24.92 61.271-41.994 76.356-57.524 11.134-11.463 20.754-21.365 40.508-33.486.026-.015.052-.031.077-.048 33.389-20.465 80.377-19.223 112.963-14.855a116.241 116.241 0 00-5.586 2.22c-21.975 9.406-50.212 29.911-59.935 74.188-11.721 53.378-65.872 114.53-77.456 127.138h-7.764zm348.817 0h-62.138c-3.026-124.049 19.13-198.25 25.761-217.505 11.719.795 23.908 2.499 36.377 5.422v212.083zM49.804 99.606h63.664c23.219 0 42.111-18.891 42.111-42.111s-18.891-42.111-42.111-42.111c-8.078 0-15.786 2.25-22.434 6.458C81.888 8.327 66.568 0 49.804 0 22.343 0 .001 22.341.001 49.803s22.342 49.803 49.803 49.803zm0-84.398a34.538 34.538 0 0131.905 21.2 7.606 7.606 0 0012.465 2.351c5.115-5.267 11.968-8.168 19.295-8.168 14.834 0 26.903 12.068 26.903 26.903s-12.069 26.903-26.903 26.903H49.804c-19.075.001-34.596-15.517-34.596-34.594s15.521-34.595 34.596-34.595zM411.123 197.704c53.947 0 97.837-43.89 97.837-97.838 0-53.947-43.89-97.837-97.837-97.837s-97.837 43.89-97.837 97.837c-.001 53.948 43.889 97.838 97.837 97.838zm0-180.468c45.562 0 82.63 37.068 82.63 82.63s-37.068 82.631-82.63 82.631-82.63-37.069-82.63-82.631 37.068-82.63 82.63-82.63z"/>
</svg>
